<svg width="559" height="553" xmlns="http://www.w3.org/2000/svg" version="1.1">
    <defs>
        <clipPath id="c_1">
            <path id="svg_1" d="m-394.99997,-166.00002l1286,0l0,909l-1286,0l0,-909z"/>
        </clipPath>
    </defs>
    <g>
        <title>Layer 1</title>
        <g id="svg_7">
            <path stroke="null" id="svg_2" fill="transparent" d="m0,0l0,552.99999l558.64111,0l0,-552.99999l-558.64111,0z"/>
            <g id="svg_3" clip-path="url(#c_1)">
                <path id="svg_4" fill="#434E66" class="g0" d="m356.60003,507.69998c4.6,-3.6 13.5,-12.1 17.4,-16.5l0,16.5l-17.4,0zm-48.3,-161.8c-11,-3.1 -21.7,-5.8 -32.1,-8.1c-10.5,-2.2 -19.8,-4.8 -28.1,-7.6c-8.3,-2.8 -15,-6 -19.9,-9.7c-4.9,-3.7 -7.4,-8.4 -7.4,-14.4c0,-5 1.2,-9.2 3.6,-12.4c2.4,-3.2 5.4,-5.8 9.1,-7.8c3.7,-2 7.7,-3.4 12.3,-4.3c4.4,-0.8 8.8,-1.2 13,-1.2c6,0 11.9,0.6 17.8,1.9c5.9,1.3 11.2,3.3 15.8,6.1c4.7,2.8 8.4,6.5 11.2,11.2c2.8,4.7 4.1,10.4 3.8,17.1l66.6,0l0,62c-1.8,-1.8 -3.8,-3.6 -5.7,-5.2c-8.3,-6.6 -17.5,-12.1 -27.9,-16.4c-10.5,-4.4 -21.2,-8.1 -32.1,-11.2m239,-60.7l0,-65.6l-173.3,0l0,51c-6.9,-11.1 -15.5,-20.4 -26,-27.8c-11.3,-7.9 -24.2,-13.7 -38.7,-17.5c-14.5,-3.8 -29.2,-5.7 -44.1,-5.7c-14.1,0 -28.5,1.6 -43.1,5c-14.7,3.4 -27.9,8.8 -39.7,16.1c-11.8,7.3 -21.5,16.8 -28.9,28.5c-7.5,11.7 -11.2,25.7 -11.2,42c0,13.8 2.5,25.6 7.8,35.3c5.2,9.7 11.9,17.9 20.3,24.5c8.3,6.6 17.7,12 28.2,16.2c10.6,4.3 21.2,7.9 31.9,11c11,3.1 21.6,5.9 31.9,8.3c10.3,2.4 19.5,5.1 27.7,8.2c8.2,3.1 14.7,6.8 19.6,11c5,4.2 7.4,9.7 7.4,16.5c0,5.6 -1.4,10.4 -4.2,14.3c-2.8,4 -6.5,7.1 -11,9.5c-4.5,2.4 -9.6,4.2 -15.4,5.3c-5.8,1.1 -11.6,1.7 -17.5,1.7c-16.9,0 -30.4,-3.4 -40.6,-10.1c-10.1,-6.8 -15.6,-19 -16.4,-36.8l-78.6,0c0,19.4 3.6,35.9 10.8,49.4c6.8,12.9 16,23.7 27.3,32.2l-122.2,0l0,-45.7l-32,32.1l0,45.7l438.8,0l0,-32.1l-0.3,0l0,-94.9l71.3,0l0,-63.4l-71.3,0l0,-64.2l91.5,0z"/>
                <path id="svg_5" fill="#434E66" class="g0" d="m49.30003,49.49998l372.2,0l0,159.8l32.1,0l0,-191.9l-436.3,0l0,238.7l32,32.1l0,-238.7z"/>
                <path id="svg_6" fill="#93D500" class="g1" d="m17.30003,374.69998l0,-104l55,52l55,52l-55,51.9l-55,52l0,-103.9z"/>
            </g>
        </g>
    </g>
</svg>
