<svg width="1920" height="1080" viewBox="0 0 1920 1080" fill="none" xmlns="http://www.w3.org/2000/svg">
<path d="M1454.15 460.213C1454.15 447.917 1464.01 437.838 1476.07 437.838C1481.9 437.838 1487.33 440.257 1491.55 444.288C1495.78 448.521 1497.99 454.166 1497.99 460.011C1497.99 465.857 1495.78 471.501 1491.55 475.734C1487.33 479.968 1481.9 482.386 1476.07 482.386C1464.01 482.386 1454.15 472.509 1454.15 460.213ZM1452.34 460.213C1452.34 473.517 1463 484.402 1476.27 484.402C1482.71 484.402 1488.54 481.983 1492.96 477.347C1497.39 472.711 1500 466.663 1500 460.213C1500 453.762 1497.59 447.715 1492.96 443.079C1488.34 438.443 1482.51 436.024 1476.27 436.024C1463 436.024 1452.34 446.909 1452.34 460.213ZM1467.22 474.525H1470.64V463.237H1478.28C1479.49 463.237 1480.5 463.237 1481.3 463.64C1482.31 464.245 1482.91 465.454 1483.11 467.067L1483.51 471.501C1483.51 472.509 1483.51 473.114 1483.51 473.517C1483.71 473.92 1483.71 474.122 1483.91 474.323H1488.14V473.719C1487.53 473.517 1487.33 472.912 1487.13 472.106C1486.93 471.703 1486.93 470.897 1486.93 469.889L1486.73 466.462C1486.73 464.849 1486.33 463.841 1485.92 463.237C1485.32 462.632 1484.52 462.027 1483.51 461.624C1484.72 461.019 1485.52 460.213 1486.13 459.205C1486.73 458.197 1486.93 456.988 1486.93 455.375C1486.93 452.351 1485.72 450.336 1483.51 449.126C1482.31 448.521 1480.7 448.32 1478.89 448.32H1467.43L1467.22 474.525ZM1470.44 460.213V451.142H1478.48C1479.69 451.142 1480.7 451.344 1481.3 451.747C1482.51 452.351 1483.11 453.762 1483.11 455.577C1483.11 457.391 1482.71 458.6 1481.7 459.205C1480.9 459.81 1479.69 460.213 1478.08 460.213H1470.44V460.213ZM517.725 493.473L420 647.479H486.759L580.864 500.327L517.725 493.473ZM920.086 490.046V433H730.065C704.126 434.613 692.865 447.11 684.42 455.98C675.371 465.454 670.344 485.41 670.344 485.41V433.403H569.201C561.56 433.403 554.321 436.628 548.892 444.288C543.262 451.747 520.138 490.046 520.138 490.046H920.086ZM1436.86 490.046V433H1233.57C1207.83 434.613 1196.37 447.11 1187.92 455.98C1178.88 465.454 1173.85 485.41 1173.85 485.41V490.046H1436.86ZM986.844 433.202H929.939V490.046H986.844V433.202ZM1173.25 433.202H1116.54V490.046H1173.25V433.202ZM1173.25 510.607L1117.35 507.181V573.096C1117.35 573.096 1117.14 592.045 1098.85 592.045H1003.13C1003.13 592.045 986.844 590.634 986.844 573.298V498.311L930.542 494.28V595.27C939.59 643.649 983.225 647.479 983.225 647.479C983.225 647.479 987.649 647.68 988.453 647.882H1118.15C1118.15 647.882 1173.65 643.447 1173.65 589.827L1173.25 510.607ZM612.433 647.479H878.261C924.509 638.206 929.335 595.875 929.335 595.875C931.547 583.377 930.341 573.096 930.341 573.096C928.933 564.63 912.847 527.137 878.261 523.911C857.55 521.896 673.16 507.181 673.16 507.181C676.779 525.726 685.023 535.2 690.654 540.441C703.523 552.737 723.832 556.365 723.832 556.365C728.658 556.769 865.995 568.259 865.995 568.259C870.419 568.46 878.663 569.67 878.462 580.555C878.462 581.966 877.256 591.44 866.8 591.44H667.932V506.777L612.635 502.746C612.433 502.746 612.433 647.479 612.433 647.479ZM1173.65 647.882H1377.14C1428.21 644.858 1435.45 596.278 1435.45 596.278C1437.26 583.578 1435.86 573.096 1435.86 573.096C1434.45 561.606 1418.16 526.935 1383.37 523.508C1362.86 521.493 1177.27 510.607 1177.27 510.607C1182.7 529.757 1190.14 535.603 1195.77 540.844C1208.64 553.342 1227.74 556.164 1227.74 556.164C1232.56 556.567 1371.31 568.259 1371.31 568.259C1375.73 568.46 1384.78 568.863 1384.78 579.748C1384.78 582.974 1383.17 586.401 1381.16 588.215C1381.16 588.215 1376.34 590.835 1371.71 590.835H1174.25L1173.65 647.882Z" fill="#00539B"/>
</svg>
